<svg id="wave-pattern" xmlns="http://www.w3.org/2000/svg" width="94.426" height="16.453" viewBox="0 0 94.426 16.453">
  <path id="Path_1154" data-name="Path 1154" d="M2534.613,706.267c-4,.324-5.917,4.1-7.613,7.426-1.47,2.885-2.858,5.61-5.153,5.61s-3.683-2.726-5.153-5.612c-1.69-3.318-3.794-7.448-8.151-7.448s-6.46,4.13-8.152,7.449c-1.469,2.886-2.858,5.612-5.153,5.612s-3.683-2.726-5.153-5.612c-1.69-3.318-3.794-7.448-8.15-7.448s-6.46,4.13-8.15,7.449c-1.47,2.886-2.858,5.612-5.153,5.612s-3.682-2.726-5.152-5.612c-1.69-3.319-3.793-7.449-8.15-7.449s-6.46,4.13-8.15,7.449c-1.47,2.886-2.858,5.612-5.152,5.612a2.876,2.876,0,0,1-.5-.049l-.7-.123v3.448l.535.054c.216.021.437.035.664.035,4.357,0,6.46-4.13,8.15-7.449,1.469-2.886,2.856-5.612,5.151-5.612s3.683,2.725,5.152,5.612c1.69,3.319,3.793,7.449,8.15,7.449s6.461-4.13,8.152-7.449c1.469-2.886,2.857-5.611,5.152-5.611s3.683,2.726,5.153,5.612c1.69,3.319,3.793,7.449,8.151,7.449s6.461-4.13,8.152-7.451c1.47-2.885,2.858-5.609,5.152-5.609s3.683,2.726,5.153,5.612c1.69,3.319,3.793,7.449,8.151,7.449s6.462-4.13,8.152-7.449c1.387-2.722,2.7-5.294,4.746-5.583l.511-.072v-3.349Z" transform="translate(-2440.829 -706.215)" fill="#C45C98"/>
  <path id="Path_1155" data-name="Path 1155" d="M2535.068,707.284c-3.663.3-5.5,3.9-7.132,7.1-1.555,3.053-3.023,5.936-5.683,5.936s-4.128-2.883-5.682-5.936c-1.7-3.34-3.629-7.125-7.622-7.125s-5.921,3.785-7.622,7.125c-1.555,3.053-3.023,5.936-5.682,5.936s-4.128-2.883-5.682-5.936c-1.7-3.34-3.629-7.125-7.622-7.125s-5.921,3.785-7.622,7.125c-1.555,3.053-3.023,5.936-5.682,5.936s-4.127-2.883-5.681-5.936c-1.7-3.34-3.628-7.125-7.621-7.125s-5.92,3.785-7.621,7.125c-1.555,3.053-3.023,5.936-5.681,5.936a3.451,3.451,0,0,1-.6-.058v2.2a6.03,6.03,0,0,0,.6.032c3.993,0,5.92-3.785,7.621-7.125,1.554-3.053,3.023-5.936,5.681-5.936s4.126,2.883,5.681,5.936c1.7,3.339,3.628,7.125,7.621,7.125s5.92-3.785,7.621-7.125c1.555-3.053,3.023-5.936,5.682-5.936s4.127,2.883,5.682,5.936c1.7,3.339,3.629,7.125,7.622,7.125s5.921-3.785,7.622-7.125c1.555-3.053,3.023-5.936,5.682-5.936s4.127,2.883,5.682,5.936c1.7,3.339,3.629,7.125,7.622,7.125s5.922-3.785,7.623-7.125c1.456-2.86,2.838-5.569,5.192-5.9Z" transform="translate(-2441.236 -706.64)" fill="#C45C98"/>
</svg>
